<?xml version="1.0" encoding="utf-8"?>
<!-- Generator: Adobe Illustrator 24.0.3, SVG Export Plug-In . SVG Version: 6.00 Build 0)  -->
<svg version="1.1" id="Scan_xA0_Bild_1_" xmlns="http://www.w3.org/2000/svg" xmlns:xlink="http://www.w3.org/1999/xlink" x="0px"
	 y="0px" viewBox="0 0 374.04 196.74" style="enable-background:new 0 0 374.04 196.74;" xml:space="preserve">
</image>
<path class="st0" d="M-0.52,55.44c6.69,0.04,14.48,3.24,21.09,4.92c10.76,2.73,22.28,4,33.6,4.03c14.31,0.03,26.82-1.18,40.77,2.95
	c12.16,3.61,25.26,2.7,37.91,2.7c12.24,0,24.08,0,35.97-2.25c7.96-1.5,16.81-0.39,24.32-3.05c8.25-2.92,22.69-2.05,31.5-3.87
	c17.67-3.66,28.85-7.34,46.74-8.34c12.55-0.7,23.98-0.09,35.84,4.11c6.93,2.45,13.56,5.33,20.5,7.77c11.22,3.94,16.48,4.8,27.56,8.8
	c2.3,0.83,8.48,2.41,18.02,2.41"/>
<path class="st1" d="M-0.52,113.81c18.76,0,32.42,6.6,51.49,4.44c6.82-0.77,13.11-4.04,19.85-5.16c4.65-0.77,9.36-0.37,14.02-1.25
	c12.12-2.28,23.76-3.02,36.17-3.02c12.2,0,23.37,2.64,35.28,3.84c18.99,1.92,40.16-1.24,58.3-7.39c15.79-5.36,34.11-0.9,50.41,2.77
	c6.4,1.44,12.59,4.93,18.9,6.2c6.39,1.29,14.3,0.1,20.85,0.1c6.35,0,13.88,1.18,20.06-0.04c6.17-1.22,12.93-2.69,19.36-2.04
	c14.05,1.41,16.23,1.08,29.92,0.17"/>
<path class="st1" d="M-4.17,162.75c12.72,0,25.89,1.76,38.61,0.56c4.46-0.42,8.08-2.42,12.1-3.23c3.82-0.77,8.28,0.22,12.18,0.02
	c13.16-0.68,26.26-2.64,39.48-2.65c16.8-0.01,32.14,7.23,48.37,9.04c12.43,1.38,25.23,1.56,37.7,2.64c11.53,1,22.88,2.65,34.5,2.65
	c6.62,0,13.43,0.55,20.03,0c9.57-0.79,18.54-4.9,27.68-7.72c11.58-3.57,21.64-6.13,33.87-5.58c13.65,0.61,24.5,6.15,38.2,2.83
	c15.47-3.75,30.38-3.33,46.34-3.33"/>
</svg>
